<?xml version="1.0" encoding="utf-8" standalone="no"?>
<!DOCTYPE svg PUBLIC "-//W3C//DTD SVG 1.1//EN"
  "http://www.w3.org/Graphics/SVG/1.1/DTD/svg11.dtd">
<!-- Created with matplotlib (https://matplotlib.org/) -->
<svg height="371.304191pt" version="1.1" viewBox="0 0 444.839763 371.304191" width="444.839763pt" xmlns="http://www.w3.org/2000/svg" xmlns:xlink="http://www.w3.org/1999/xlink">
 <defs>
  <style type="text/css">
*{stroke-linecap:butt;stroke-linejoin:round;}
  </style>
 </defs>
 <g id="figure_1">
  <g id="patch_1">
   <path d="M 0 371.304191 
L 444.839763 371.304191 
L 444.839763 0 
L 0 0 
z
" style="fill:#ffffff;stroke:#ffffff;stroke-linejoin:miter;"/>
  </g>
  <g id="axes_1">
   <g id="patch_2">
    <path d="M 80.519763 293.95397 
L 437.639763 293.95397 
L 437.639763 27.84197 
L 80.519763 27.84197 
z
" style="fill:#ffffff;stroke:#7f7f7f;stroke-linejoin:miter;"/>
   </g>
   <g id="matplotlib.axis_1">
    <g id="xtick_1">
     <g id="line2d_1">
      <path clip-path="url(#p21bddebf0d)" d="M 115.079763 293.95397 
L 115.079763 27.84197 
" style="fill:none;stroke:#e5e5e5;stroke-linecap:square;stroke-width:0.8;"/>
     </g>
     <g id="line2d_2">
      <path d="M 115.079763 293.95397 
" style="fill:none;stroke:#333333;stroke-linecap:square;stroke-width:1.5;"/>
      <defs>
       <path d="M 0 0 
L 0 2.75 
" id="m64c0fa02da" style="stroke:#333333;"/>
      </defs>
      <g>
       <use style="fill:#333333;stroke:#333333;" x="115.079763" xlink:href="#m64c0fa02da" y="293.95397"/>
      </g>
     </g>
     <g id="text_1">
      <!-- 2019K1 -->
      <defs>
       <path d="M 28.8125 13.8125 
L 60.890625 13.8125 
L 60.890625 0 
L 7.90625 0 
L 7.90625 13.8125 
L 34.515625 37.3125 
Q 38.09375 40.53125 39.796875 43.609375 
Q 41.5 46.6875 41.5 50 
Q 41.5 55.125 38.0625 58.25 
Q 34.625 61.375 28.90625 61.375 
Q 24.515625 61.375 19.28125 59.5 
Q 14.0625 57.625 8.109375 53.90625 
L 8.109375 69.921875 
Q 14.453125 72.015625 20.65625 73.109375 
Q 26.859375 74.21875 32.8125 74.21875 
Q 45.90625 74.21875 53.15625 68.453125 
Q 60.40625 62.703125 60.40625 52.390625 
Q 60.40625 46.4375 57.328125 41.28125 
Q 54.25 36.140625 44.390625 27.484375 
z
" id="DejaVuSans-Bold-50"/>
       <path d="M 46 36.53125 
Q 46 50.203125 43.4375 55.78125 
Q 40.875 61.375 34.8125 61.375 
Q 28.765625 61.375 26.171875 55.78125 
Q 23.578125 50.203125 23.578125 36.53125 
Q 23.578125 22.703125 26.171875 17.03125 
Q 28.765625 11.375 34.8125 11.375 
Q 40.828125 11.375 43.40625 17.03125 
Q 46 22.703125 46 36.53125 
z
M 64.796875 36.375 
Q 64.796875 18.265625 56.984375 8.421875 
Q 49.171875 -1.421875 34.8125 -1.421875 
Q 20.40625 -1.421875 12.59375 8.421875 
Q 4.78125 18.265625 4.78125 36.375 
Q 4.78125 54.546875 12.59375 64.375 
Q 20.40625 74.21875 34.8125 74.21875 
Q 49.171875 74.21875 56.984375 64.375 
Q 64.796875 54.546875 64.796875 36.375 
z
" id="DejaVuSans-Bold-48"/>
       <path d="M 11.71875 12.984375 
L 28.328125 12.984375 
L 28.328125 60.109375 
L 11.28125 56.59375 
L 11.28125 69.390625 
L 28.21875 72.90625 
L 46.09375 72.90625 
L 46.09375 12.984375 
L 62.703125 12.984375 
L 62.703125 0 
L 11.71875 0 
z
" id="DejaVuSans-Bold-49"/>
       <path d="M 10.015625 1.609375 
L 10.015625 15.09375 
Q 14.5 12.984375 18.59375 11.9375 
Q 22.703125 10.890625 26.703125 10.890625 
Q 35.109375 10.890625 39.796875 15.546875 
Q 44.484375 20.21875 45.3125 29.390625 
Q 42 26.953125 38.234375 25.734375 
Q 34.46875 24.515625 30.078125 24.515625 
Q 18.890625 24.515625 12.03125 31.03125 
Q 5.171875 37.546875 5.171875 48.1875 
Q 5.171875 59.96875 12.8125 67.046875 
Q 20.453125 74.125 33.296875 74.125 
Q 47.5625 74.125 55.375 64.5 
Q 63.1875 54.890625 63.1875 37.3125 
Q 63.1875 19.234375 54.046875 8.90625 
Q 44.921875 -1.421875 29 -1.421875 
Q 23.875 -1.421875 19.1875 -0.65625 
Q 14.5 0.09375 10.015625 1.609375 
z
M 33.203125 36.71875 
Q 38.140625 36.71875 40.625 39.90625 
Q 43.109375 43.109375 43.109375 49.515625 
Q 43.109375 55.859375 40.625 59.078125 
Q 38.140625 62.3125 33.203125 62.3125 
Q 28.265625 62.3125 25.78125 59.078125 
Q 23.296875 55.859375 23.296875 49.515625 
Q 23.296875 43.109375 25.78125 39.90625 
Q 28.265625 36.71875 33.203125 36.71875 
z
" id="DejaVuSans-Bold-57"/>
       <path d="M 9.1875 72.90625 
L 27.984375 72.90625 
L 27.984375 46.296875 
L 55.078125 72.90625 
L 76.90625 72.90625 
L 41.796875 38.375 
L 80.515625 0 
L 56.984375 0 
L 27.984375 28.71875 
L 27.984375 0 
L 9.1875 0 
z
" id="DejaVuSans-Bold-75"/>
      </defs>
      <g style="fill:#4d4d4d;" transform="translate(95.447606 349.881162)rotate(-45)scale(0.15 -0.15)">
       <use xlink:href="#DejaVuSans-Bold-50"/>
       <use x="69.580078" xlink:href="#DejaVuSans-Bold-48"/>
       <use x="139.160156" xlink:href="#DejaVuSans-Bold-49"/>
       <use x="208.740234" xlink:href="#DejaVuSans-Bold-57"/>
       <use x="278.320312" xlink:href="#DejaVuSans-Bold-75"/>
       <use x="355.810547" xlink:href="#DejaVuSans-Bold-49"/>
      </g>
     </g>
    </g>
    <g id="xtick_2">
     <g id="line2d_3">
      <path clip-path="url(#p21bddebf0d)" d="M 172.679763 293.95397 
L 172.679763 27.84197 
" style="fill:none;stroke:#e5e5e5;stroke-linecap:square;stroke-width:0.8;"/>
     </g>
     <g id="line2d_4">
      <path d="M 172.679763 293.95397 
" style="fill:none;stroke:#333333;stroke-linecap:square;stroke-width:1.5;"/>
      <g>
       <use style="fill:#333333;stroke:#333333;" x="172.679763" xlink:href="#m64c0fa02da" y="293.95397"/>
      </g>
     </g>
     <g id="text_2">
      <!-- 2019K2 -->
      <g style="fill:#4d4d4d;" transform="translate(153.047606 349.881162)rotate(-45)scale(0.15 -0.15)">
       <use xlink:href="#DejaVuSans-Bold-50"/>
       <use x="69.580078" xlink:href="#DejaVuSans-Bold-48"/>
       <use x="139.160156" xlink:href="#DejaVuSans-Bold-49"/>
       <use x="208.740234" xlink:href="#DejaVuSans-Bold-57"/>
       <use x="278.320312" xlink:href="#DejaVuSans-Bold-75"/>
       <use x="355.810547" xlink:href="#DejaVuSans-Bold-50"/>
      </g>
     </g>
    </g>
    <g id="xtick_3">
     <g id="line2d_5">
      <path clip-path="url(#p21bddebf0d)" d="M 230.279763 293.95397 
L 230.279763 27.84197 
" style="fill:none;stroke:#e5e5e5;stroke-linecap:square;stroke-width:0.8;"/>
     </g>
     <g id="line2d_6">
      <path d="M 230.279763 293.95397 
" style="fill:none;stroke:#333333;stroke-linecap:square;stroke-width:1.5;"/>
      <g>
       <use style="fill:#333333;stroke:#333333;" x="230.279763" xlink:href="#m64c0fa02da" y="293.95397"/>
      </g>
     </g>
     <g id="text_3">
      <!-- 2019K3 -->
      <defs>
       <path d="M 46.578125 39.3125 
Q 53.953125 37.40625 57.78125 32.6875 
Q 61.625 27.984375 61.625 20.703125 
Q 61.625 9.859375 53.3125 4.21875 
Q 45.015625 -1.421875 29.109375 -1.421875 
Q 23.484375 -1.421875 17.84375 -0.515625 
Q 12.203125 0.390625 6.6875 2.203125 
L 6.6875 16.703125 
Q 11.96875 14.0625 17.15625 12.71875 
Q 22.359375 11.375 27.390625 11.375 
Q 34.859375 11.375 38.84375 13.953125 
Q 42.828125 16.546875 42.828125 21.390625 
Q 42.828125 26.375 38.75 28.9375 
Q 34.671875 31.5 26.703125 31.5 
L 19.1875 31.5 
L 19.1875 43.609375 
L 27.09375 43.609375 
Q 34.1875 43.609375 37.640625 45.828125 
Q 41.109375 48.046875 41.109375 52.59375 
Q 41.109375 56.78125 37.734375 59.078125 
Q 34.375 61.375 28.21875 61.375 
Q 23.6875 61.375 19.046875 60.34375 
Q 14.40625 59.328125 9.8125 57.328125 
L 9.8125 71.09375 
Q 15.375 72.65625 20.84375 73.4375 
Q 26.3125 74.21875 31.59375 74.21875 
Q 45.796875 74.21875 52.84375 69.546875 
Q 59.90625 64.890625 59.90625 55.515625 
Q 59.90625 49.125 56.53125 45.046875 
Q 53.171875 40.96875 46.578125 39.3125 
z
" id="DejaVuSans-Bold-51"/>
      </defs>
      <g style="fill:#4d4d4d;" transform="translate(210.647606 349.881162)rotate(-45)scale(0.15 -0.15)">
       <use xlink:href="#DejaVuSans-Bold-50"/>
       <use x="69.580078" xlink:href="#DejaVuSans-Bold-48"/>
       <use x="139.160156" xlink:href="#DejaVuSans-Bold-49"/>
       <use x="208.740234" xlink:href="#DejaVuSans-Bold-57"/>
       <use x="278.320312" xlink:href="#DejaVuSans-Bold-75"/>
       <use x="355.810547" xlink:href="#DejaVuSans-Bold-51"/>
      </g>
     </g>
    </g>
    <g id="xtick_4">
     <g id="line2d_7">
      <path clip-path="url(#p21bddebf0d)" d="M 287.879763 293.95397 
L 287.879763 27.84197 
" style="fill:none;stroke:#e5e5e5;stroke-linecap:square;stroke-width:0.8;"/>
     </g>
     <g id="line2d_8">
      <path d="M 287.879763 293.95397 
" style="fill:none;stroke:#333333;stroke-linecap:square;stroke-width:1.5;"/>
      <g>
       <use style="fill:#333333;stroke:#333333;" x="287.879763" xlink:href="#m64c0fa02da" y="293.95397"/>
      </g>
     </g>
     <g id="text_4">
      <!-- 2019K4 -->
      <defs>
       <path d="M 36.8125 57.421875 
L 16.21875 26.90625 
L 36.8125 26.90625 
z
M 33.6875 72.90625 
L 54.59375 72.90625 
L 54.59375 26.90625 
L 64.984375 26.90625 
L 64.984375 13.28125 
L 54.59375 13.28125 
L 54.59375 0 
L 36.8125 0 
L 36.8125 13.28125 
L 4.5 13.28125 
L 4.5 29.390625 
z
" id="DejaVuSans-Bold-52"/>
      </defs>
      <g style="fill:#4d4d4d;" transform="translate(268.247606 349.881162)rotate(-45)scale(0.15 -0.15)">
       <use xlink:href="#DejaVuSans-Bold-50"/>
       <use x="69.580078" xlink:href="#DejaVuSans-Bold-48"/>
       <use x="139.160156" xlink:href="#DejaVuSans-Bold-49"/>
       <use x="208.740234" xlink:href="#DejaVuSans-Bold-57"/>
       <use x="278.320312" xlink:href="#DejaVuSans-Bold-75"/>
       <use x="355.810547" xlink:href="#DejaVuSans-Bold-52"/>
      </g>
     </g>
    </g>
    <g id="xtick_5">
     <g id="line2d_9">
      <path clip-path="url(#p21bddebf0d)" d="M 345.479763 293.95397 
L 345.479763 27.84197 
" style="fill:none;stroke:#e5e5e5;stroke-linecap:square;stroke-width:0.8;"/>
     </g>
     <g id="line2d_10">
      <path d="M 345.479763 293.95397 
" style="fill:none;stroke:#333333;stroke-linecap:square;stroke-width:1.5;"/>
      <g>
       <use style="fill:#333333;stroke:#333333;" x="345.479763" xlink:href="#m64c0fa02da" y="293.95397"/>
      </g>
     </g>
     <g id="text_5">
      <!-- 2020K1 -->
      <g style="fill:#4d4d4d;" transform="translate(325.847606 349.881162)rotate(-45)scale(0.15 -0.15)">
       <use xlink:href="#DejaVuSans-Bold-50"/>
       <use x="69.580078" xlink:href="#DejaVuSans-Bold-48"/>
       <use x="139.160156" xlink:href="#DejaVuSans-Bold-50"/>
       <use x="208.740234" xlink:href="#DejaVuSans-Bold-48"/>
       <use x="278.320312" xlink:href="#DejaVuSans-Bold-75"/>
       <use x="355.810547" xlink:href="#DejaVuSans-Bold-49"/>
      </g>
     </g>
    </g>
    <g id="xtick_6">
     <g id="line2d_11">
      <path clip-path="url(#p21bddebf0d)" d="M 403.079763 293.95397 
L 403.079763 27.84197 
" style="fill:none;stroke:#e5e5e5;stroke-linecap:square;stroke-width:0.8;"/>
     </g>
     <g id="line2d_12">
      <path d="M 403.079763 293.95397 
" style="fill:none;stroke:#333333;stroke-linecap:square;stroke-width:1.5;"/>
      <g>
       <use style="fill:#333333;stroke:#333333;" x="403.079763" xlink:href="#m64c0fa02da" y="293.95397"/>
      </g>
     </g>
     <g id="text_6">
      <!-- 2020K2 -->
      <g style="fill:#4d4d4d;" transform="translate(383.447606 349.881162)rotate(-45)scale(0.15 -0.15)">
       <use xlink:href="#DejaVuSans-Bold-50"/>
       <use x="69.580078" xlink:href="#DejaVuSans-Bold-48"/>
       <use x="139.160156" xlink:href="#DejaVuSans-Bold-50"/>
       <use x="208.740234" xlink:href="#DejaVuSans-Bold-48"/>
       <use x="278.320312" xlink:href="#DejaVuSans-Bold-75"/>
       <use x="355.810547" xlink:href="#DejaVuSans-Bold-50"/>
      </g>
     </g>
    </g>
    <g id="text_7">
     <!-- Period -->
     <defs>
      <path d="M 9.1875 72.90625 
L 40.375 72.90625 
Q 54.296875 72.90625 61.734375 66.71875 
Q 69.1875 60.546875 69.1875 49.125 
Q 69.1875 37.640625 61.734375 31.46875 
Q 54.296875 25.296875 40.375 25.296875 
L 27.984375 25.296875 
L 27.984375 0 
L 9.1875 0 
z
M 27.984375 59.28125 
L 27.984375 38.921875 
L 38.375 38.921875 
Q 43.84375 38.921875 46.828125 41.578125 
Q 49.8125 44.234375 49.8125 49.125 
Q 49.8125 54 46.828125 56.640625 
Q 43.84375 59.28125 38.375 59.28125 
z
" id="DejaVuSans-Bold-80"/>
      <path d="M 62.984375 27.484375 
L 62.984375 22.515625 
L 22.125 22.515625 
Q 22.75 16.359375 26.5625 13.28125 
Q 30.375 10.203125 37.203125 10.203125 
Q 42.71875 10.203125 48.5 11.84375 
Q 54.296875 13.484375 60.40625 16.796875 
L 60.40625 3.328125 
Q 54.203125 0.984375 48 -0.21875 
Q 41.796875 -1.421875 35.59375 -1.421875 
Q 20.75 -1.421875 12.515625 6.125 
Q 4.296875 13.671875 4.296875 27.296875 
Q 4.296875 40.671875 12.375 48.328125 
Q 20.453125 56 34.625 56 
Q 47.515625 56 55.25 48.234375 
Q 62.984375 40.484375 62.984375 27.484375 
z
M 45.015625 33.296875 
Q 45.015625 38.28125 42.109375 41.328125 
Q 39.203125 44.390625 34.515625 44.390625 
Q 29.4375 44.390625 26.265625 41.53125 
Q 23.09375 38.671875 22.3125 33.296875 
z
" id="DejaVuSans-Bold-101"/>
      <path d="M 49.03125 39.796875 
Q 46.734375 40.875 44.453125 41.375 
Q 42.1875 41.890625 39.890625 41.890625 
Q 33.15625 41.890625 29.515625 37.5625 
Q 25.875 33.25 25.875 25.203125 
L 25.875 0 
L 8.40625 0 
L 8.40625 54.6875 
L 25.875 54.6875 
L 25.875 45.703125 
Q 29.25 51.078125 33.609375 53.53125 
Q 37.984375 56 44.09375 56 
Q 44.96875 56 45.984375 55.921875 
Q 47.015625 55.859375 48.96875 55.609375 
z
" id="DejaVuSans-Bold-114"/>
      <path d="M 8.40625 54.6875 
L 25.875 54.6875 
L 25.875 0 
L 8.40625 0 
z
M 8.40625 75.984375 
L 25.875 75.984375 
L 25.875 61.71875 
L 8.40625 61.71875 
z
" id="DejaVuSans-Bold-105"/>
      <path d="M 34.421875 43.5 
Q 28.609375 43.5 25.5625 39.328125 
Q 22.515625 35.15625 22.515625 27.296875 
Q 22.515625 19.4375 25.5625 15.25 
Q 28.609375 11.078125 34.421875 11.078125 
Q 40.140625 11.078125 43.15625 15.25 
Q 46.1875 19.4375 46.1875 27.296875 
Q 46.1875 35.15625 43.15625 39.328125 
Q 40.140625 43.5 34.421875 43.5 
z
M 34.421875 56 
Q 48.53125 56 56.46875 48.375 
Q 64.40625 40.765625 64.40625 27.296875 
Q 64.40625 13.8125 56.46875 6.1875 
Q 48.53125 -1.421875 34.421875 -1.421875 
Q 20.265625 -1.421875 12.28125 6.1875 
Q 4.296875 13.8125 4.296875 27.296875 
Q 4.296875 40.765625 12.28125 48.375 
Q 20.265625 56 34.421875 56 
z
" id="DejaVuSans-Bold-111"/>
      <path d="M 45.609375 46.6875 
L 45.609375 75.984375 
L 63.1875 75.984375 
L 63.1875 0 
L 45.609375 0 
L 45.609375 7.90625 
Q 42 3.078125 37.640625 0.828125 
Q 33.296875 -1.421875 27.59375 -1.421875 
Q 17.484375 -1.421875 10.984375 6.609375 
Q 4.5 14.65625 4.5 27.296875 
Q 4.5 39.9375 10.984375 47.96875 
Q 17.484375 56 27.59375 56 
Q 33.25 56 37.625 53.734375 
Q 42 51.46875 45.609375 46.6875 
z
M 34.078125 11.28125 
Q 39.703125 11.28125 42.65625 15.375 
Q 45.609375 19.484375 45.609375 27.296875 
Q 45.609375 35.109375 42.65625 39.203125 
Q 39.703125 43.3125 34.078125 43.3125 
Q 28.515625 43.3125 25.5625 39.203125 
Q 22.609375 35.109375 22.609375 27.296875 
Q 22.609375 19.484375 25.5625 15.375 
Q 28.515625 11.28125 34.078125 11.28125 
z
" id="DejaVuSans-Bold-100"/>
     </defs>
     <g style="opacity:0.8;" transform="translate(225.944763 360.98466)scale(0.15 -0.15)">
      <use xlink:href="#DejaVuSans-Bold-80"/>
      <use x="73.291016" xlink:href="#DejaVuSans-Bold-101"/>
      <use x="141.113281" xlink:href="#DejaVuSans-Bold-114"/>
      <use x="190.429688" xlink:href="#DejaVuSans-Bold-105"/>
      <use x="224.707031" xlink:href="#DejaVuSans-Bold-111"/>
      <use x="293.408203" xlink:href="#DejaVuSans-Bold-100"/>
     </g>
    </g>
   </g>
   <g id="matplotlib.axis_2">
    <g id="ytick_1">
     <g id="line2d_13">
      <path clip-path="url(#p21bddebf0d)" d="M 80.519763 283.553695 
L 437.639763 283.553695 
" style="fill:none;stroke:#e5e5e5;stroke-linecap:square;stroke-width:0.8;"/>
     </g>
     <g id="line2d_14">
      <path d="M 80.519763 283.553695 
" style="fill:none;stroke:#333333;stroke-linecap:square;stroke-width:1.5;"/>
      <defs>
       <path d="M 0 0 
L -2.75 0 
" id="m9705d6de1b" style="stroke:#333333;"/>
      </defs>
      <g>
       <use style="fill:#333333;stroke:#333333;" x="80.519763" xlink:href="#m9705d6de1b" y="283.553695"/>
      </g>
     </g>
     <g id="text_8">
      <!-- −30000 -->
      <defs>
       <path d="M 10.59375 37.109375 
L 73.1875 37.109375 
L 73.1875 25.59375 
L 10.59375 25.59375 
z
" id="DejaVuSans-Bold-8722"/>
      </defs>
      <g style="fill:#4d4d4d;" transform="translate(29.776548 309.374141)rotate(-45)scale(0.15 -0.15)">
       <use xlink:href="#DejaVuSans-Bold-8722"/>
       <use x="83.789062" xlink:href="#DejaVuSans-Bold-51"/>
       <use x="153.369141" xlink:href="#DejaVuSans-Bold-48"/>
       <use x="222.949219" xlink:href="#DejaVuSans-Bold-48"/>
       <use x="292.529297" xlink:href="#DejaVuSans-Bold-48"/>
       <use x="362.109375" xlink:href="#DejaVuSans-Bold-48"/>
      </g>
     </g>
    </g>
    <g id="ytick_2">
     <g id="line2d_15">
      <path clip-path="url(#p21bddebf0d)" d="M 80.519763 221.741118 
L 437.639763 221.741118 
" style="fill:none;stroke:#e5e5e5;stroke-linecap:square;stroke-width:0.8;"/>
     </g>
     <g id="line2d_16">
      <path d="M 80.519763 221.741118 
" style="fill:none;stroke:#333333;stroke-linecap:square;stroke-width:1.5;"/>
      <g>
       <use style="fill:#333333;stroke:#333333;" x="80.519763" xlink:href="#m9705d6de1b" y="221.741118"/>
      </g>
     </g>
     <g id="text_9">
      <!-- 0 -->
      <g style="fill:#4d4d4d;" transform="translate(68.184047 228.357815)rotate(-45)scale(0.15 -0.15)">
       <use xlink:href="#DejaVuSans-Bold-48"/>
      </g>
     </g>
    </g>
    <g id="ytick_3">
     <g id="line2d_17">
      <path clip-path="url(#p21bddebf0d)" d="M 80.519763 159.928542 
L 437.639763 159.928542 
" style="fill:none;stroke:#e5e5e5;stroke-linecap:square;stroke-width:0.8;"/>
     </g>
     <g id="line2d_18">
      <path d="M 80.519763 159.928542 
" style="fill:none;stroke:#333333;stroke-linecap:square;stroke-width:1.5;"/>
      <g>
       <use style="fill:#333333;stroke:#333333;" x="80.519763" xlink:href="#m9705d6de1b" y="159.928542"/>
      </g>
     </g>
     <g id="text_10">
      <!-- 30000 -->
      <g style="fill:#4d4d4d;" transform="translate(38.664548 181.304988)rotate(-45)scale(0.15 -0.15)">
       <use xlink:href="#DejaVuSans-Bold-51"/>
       <use x="69.580078" xlink:href="#DejaVuSans-Bold-48"/>
       <use x="139.160156" xlink:href="#DejaVuSans-Bold-48"/>
       <use x="208.740234" xlink:href="#DejaVuSans-Bold-48"/>
       <use x="278.320312" xlink:href="#DejaVuSans-Bold-48"/>
      </g>
     </g>
    </g>
    <g id="ytick_4">
     <g id="line2d_19">
      <path clip-path="url(#p21bddebf0d)" d="M 80.519763 98.115966 
L 437.639763 98.115966 
" style="fill:none;stroke:#e5e5e5;stroke-linecap:square;stroke-width:0.8;"/>
     </g>
     <g id="line2d_20">
      <path d="M 80.519763 98.115966 
" style="fill:none;stroke:#333333;stroke-linecap:square;stroke-width:1.5;"/>
      <g>
       <use style="fill:#333333;stroke:#333333;" x="80.519763" xlink:href="#m9705d6de1b" y="98.115966"/>
      </g>
     </g>
     <g id="text_11">
      <!-- 60000 -->
      <defs>
       <path d="M 36.1875 35.984375 
Q 31.25 35.984375 28.78125 32.78125 
Q 26.3125 29.59375 26.3125 23.1875 
Q 26.3125 16.796875 28.78125 13.59375 
Q 31.25 10.40625 36.1875 10.40625 
Q 41.15625 10.40625 43.625 13.59375 
Q 46.09375 16.796875 46.09375 23.1875 
Q 46.09375 29.59375 43.625 32.78125 
Q 41.15625 35.984375 36.1875 35.984375 
z
M 59.421875 71 
L 59.421875 57.515625 
Q 54.78125 59.71875 50.671875 60.765625 
Q 46.578125 61.8125 42.671875 61.8125 
Q 34.28125 61.8125 29.59375 57.140625 
Q 24.90625 52.484375 24.125 43.3125 
Q 27.34375 45.703125 31.09375 46.890625 
Q 34.859375 48.09375 39.3125 48.09375 
Q 50.484375 48.09375 57.34375 41.546875 
Q 64.203125 35.015625 64.203125 24.421875 
Q 64.203125 12.703125 56.53125 5.640625 
Q 48.875 -1.421875 35.984375 -1.421875 
Q 21.78125 -1.421875 13.984375 8.171875 
Q 6.203125 17.78125 6.203125 35.40625 
Q 6.203125 53.46875 15.3125 63.796875 
Q 24.421875 74.125 40.28125 74.125 
Q 45.3125 74.125 50.046875 73.34375 
Q 54.78125 72.5625 59.421875 71 
z
" id="DejaVuSans-Bold-54"/>
      </defs>
      <g style="fill:#4d4d4d;" transform="translate(38.664548 119.492412)rotate(-45)scale(0.15 -0.15)">
       <use xlink:href="#DejaVuSans-Bold-54"/>
       <use x="69.580078" xlink:href="#DejaVuSans-Bold-48"/>
       <use x="139.160156" xlink:href="#DejaVuSans-Bold-48"/>
       <use x="208.740234" xlink:href="#DejaVuSans-Bold-48"/>
       <use x="278.320312" xlink:href="#DejaVuSans-Bold-48"/>
      </g>
     </g>
    </g>
    <g id="ytick_5">
     <g id="line2d_21">
      <path clip-path="url(#p21bddebf0d)" d="M 80.519763 36.30339 
L 437.639763 36.30339 
" style="fill:none;stroke:#e5e5e5;stroke-linecap:square;stroke-width:0.8;"/>
     </g>
     <g id="line2d_22">
      <path d="M 80.519763 36.30339 
" style="fill:none;stroke:#333333;stroke-linecap:square;stroke-width:1.5;"/>
      <g>
       <use style="fill:#333333;stroke:#333333;" x="80.519763" xlink:href="#m9705d6de1b" y="36.30339"/>
      </g>
     </g>
     <g id="text_12">
      <!-- 90000 -->
      <g style="fill:#4d4d4d;" transform="translate(38.664548 57.679836)rotate(-45)scale(0.15 -0.15)">
       <use xlink:href="#DejaVuSans-Bold-57"/>
       <use x="69.580078" xlink:href="#DejaVuSans-Bold-48"/>
       <use x="139.160156" xlink:href="#DejaVuSans-Bold-48"/>
       <use x="208.740234" xlink:href="#DejaVuSans-Bold-48"/>
       <use x="278.320312" xlink:href="#DejaVuSans-Bold-48"/>
      </g>
     </g>
    </g>
    <g id="ytick_6">
     <g id="line2d_23">
      <path clip-path="url(#p21bddebf0d)" d="M 80.519763 252.647407 
L 437.639763 252.647407 
" style="fill:none;stroke:#fafafa;stroke-linecap:square;"/>
     </g>
    </g>
    <g id="ytick_7">
     <g id="line2d_24">
      <path clip-path="url(#p21bddebf0d)" d="M 80.519763 190.83483 
L 437.639763 190.83483 
" style="fill:none;stroke:#fafafa;stroke-linecap:square;"/>
     </g>
    </g>
    <g id="ytick_8">
     <g id="line2d_25">
      <path clip-path="url(#p21bddebf0d)" d="M 80.519763 129.022254 
L 437.639763 129.022254 
" style="fill:none;stroke:#fafafa;stroke-linecap:square;"/>
     </g>
    </g>
    <g id="ytick_9">
     <g id="line2d_26">
      <path clip-path="url(#p21bddebf0d)" d="M 80.519763 67.209678 
L 437.639763 67.209678 
" style="fill:none;stroke:#fafafa;stroke-linecap:square;"/>
     </g>
    </g>
    <g id="text_13">
     <!-- Million of SEK -->
     <defs>
      <path d="M 9.1875 72.90625 
L 33.109375 72.90625 
L 49.703125 33.890625 
L 66.40625 72.90625 
L 90.28125 72.90625 
L 90.28125 0 
L 72.515625 0 
L 72.515625 53.328125 
L 55.71875 14.015625 
L 43.796875 14.015625 
L 27 53.328125 
L 27 0 
L 9.1875 0 
z
" id="DejaVuSans-Bold-77"/>
      <path d="M 8.40625 75.984375 
L 25.875 75.984375 
L 25.875 0 
L 8.40625 0 
z
" id="DejaVuSans-Bold-108"/>
      <path d="M 63.375 33.296875 
L 63.375 0 
L 45.796875 0 
L 45.796875 5.421875 
L 45.796875 25.484375 
Q 45.796875 32.5625 45.484375 35.25 
Q 45.171875 37.9375 44.390625 39.203125 
Q 43.359375 40.921875 41.59375 41.875 
Q 39.84375 42.828125 37.59375 42.828125 
Q 32.125 42.828125 29 38.59375 
Q 25.875 34.375 25.875 26.90625 
L 25.875 0 
L 8.40625 0 
L 8.40625 54.6875 
L 25.875 54.6875 
L 25.875 46.6875 
Q 29.828125 51.46875 34.265625 53.734375 
Q 38.71875 56 44.09375 56 
Q 53.5625 56 58.46875 50.1875 
Q 63.375 44.390625 63.375 33.296875 
z
" id="DejaVuSans-Bold-110"/>
      <path id="DejaVuSans-Bold-32"/>
      <path d="M 44.390625 75.984375 
L 44.390625 64.5 
L 34.71875 64.5 
Q 31 64.5 29.53125 63.15625 
Q 28.078125 61.8125 28.078125 58.5 
L 28.078125 54.6875 
L 43.015625 54.6875 
L 43.015625 42.1875 
L 28.078125 42.1875 
L 28.078125 0 
L 10.59375 0 
L 10.59375 42.1875 
L 1.90625 42.1875 
L 1.90625 54.6875 
L 10.59375 54.6875 
L 10.59375 58.5 
Q 10.59375 67.4375 15.578125 71.703125 
Q 20.5625 75.984375 31 75.984375 
z
" id="DejaVuSans-Bold-102"/>
      <path d="M 59.90625 70.609375 
L 59.90625 55.171875 
Q 53.90625 57.859375 48.1875 59.21875 
Q 42.484375 60.59375 37.40625 60.59375 
Q 30.671875 60.59375 27.4375 58.734375 
Q 24.21875 56.890625 24.21875 52.984375 
Q 24.21875 50.046875 26.390625 48.40625 
Q 28.5625 46.78125 34.28125 45.609375 
L 42.28125 44 
Q 54.4375 41.546875 59.5625 36.5625 
Q 64.703125 31.59375 64.703125 22.40625 
Q 64.703125 10.359375 57.546875 4.46875 
Q 50.390625 -1.421875 35.6875 -1.421875 
Q 28.765625 -1.421875 21.78125 -0.09375 
Q 14.796875 1.21875 7.8125 3.8125 
L 7.8125 19.671875 
Q 14.796875 15.96875 21.3125 14.078125 
Q 27.828125 12.203125 33.890625 12.203125 
Q 40.046875 12.203125 43.3125 14.25 
Q 46.578125 16.3125 46.578125 20.125 
Q 46.578125 23.53125 44.359375 25.390625 
Q 42.140625 27.25 35.5 28.71875 
L 28.21875 30.328125 
Q 17.28125 32.671875 12.21875 37.796875 
Q 7.171875 42.921875 7.171875 51.609375 
Q 7.171875 62.5 14.203125 68.359375 
Q 21.234375 74.21875 34.421875 74.21875 
Q 40.4375 74.21875 46.78125 73.3125 
Q 53.125 72.40625 59.90625 70.609375 
z
" id="DejaVuSans-Bold-83"/>
      <path d="M 9.1875 72.90625 
L 59.90625 72.90625 
L 59.90625 58.6875 
L 27.984375 58.6875 
L 27.984375 45.125 
L 58.015625 45.125 
L 58.015625 30.90625 
L 27.984375 30.90625 
L 27.984375 14.203125 
L 60.984375 14.203125 
L 60.984375 0 
L 9.1875 0 
z
" id="DejaVuSans-Bold-69"/>
     </defs>
     <g style="opacity:0.8;" transform="translate(18.597656 217.38286)rotate(-90)scale(0.15 -0.15)">
      <use xlink:href="#DejaVuSans-Bold-77"/>
      <use x="99.511719" xlink:href="#DejaVuSans-Bold-105"/>
      <use x="133.789062" xlink:href="#DejaVuSans-Bold-108"/>
      <use x="168.066406" xlink:href="#DejaVuSans-Bold-108"/>
      <use x="202.34375" xlink:href="#DejaVuSans-Bold-105"/>
      <use x="236.621094" xlink:href="#DejaVuSans-Bold-111"/>
      <use x="305.322266" xlink:href="#DejaVuSans-Bold-110"/>
      <use x="376.513672" xlink:href="#DejaVuSans-Bold-32"/>
      <use x="411.328125" xlink:href="#DejaVuSans-Bold-111"/>
      <use x="480.029297" xlink:href="#DejaVuSans-Bold-102"/>
      <use x="523.535156" xlink:href="#DejaVuSans-Bold-32"/>
      <use x="558.349609" xlink:href="#DejaVuSans-Bold-83"/>
      <use x="630.371094" xlink:href="#DejaVuSans-Bold-69"/>
      <use x="698.681641" xlink:href="#DejaVuSans-Bold-75"/>
     </g>
    </g>
   </g>
   <g id="line2d_27">
    <path clip-path="url(#p21bddebf0d)" d="M 115.079763 141.471307 
L 172.679763 140.292747 
L 230.279763 151.336594 
L 287.879763 132.512604 
L 345.479763 100.054821 
L 403.079763 130.058645 
" style="fill:none;stroke:#ff0000;stroke-opacity:0.501961;stroke-width:3.544908;"/>
   </g>
   <g id="text_14">
    <g clip-path="url(#p21bddebf0d)">
     <!-- invested -->
     <defs>
      <path d="M 9.421875 54.6875 
L 18.40625 54.6875 
L 18.40625 0 
L 9.421875 0 
z
M 9.421875 75.984375 
L 18.40625 75.984375 
L 18.40625 64.59375 
L 9.421875 64.59375 
z
" id="DejaVuSans-105"/>
      <path d="M 54.890625 33.015625 
L 54.890625 0 
L 45.90625 0 
L 45.90625 32.71875 
Q 45.90625 40.484375 42.875 44.328125 
Q 39.84375 48.1875 33.796875 48.1875 
Q 26.515625 48.1875 22.3125 43.546875 
Q 18.109375 38.921875 18.109375 30.90625 
L 18.109375 0 
L 9.078125 0 
L 9.078125 54.6875 
L 18.109375 54.6875 
L 18.109375 46.1875 
Q 21.34375 51.125 25.703125 53.5625 
Q 30.078125 56 35.796875 56 
Q 45.21875 56 50.046875 50.171875 
Q 54.890625 44.34375 54.890625 33.015625 
z
" id="DejaVuSans-110"/>
      <path d="M 2.984375 54.6875 
L 12.5 54.6875 
L 29.59375 8.796875 
L 46.6875 54.6875 
L 56.203125 54.6875 
L 35.6875 0 
L 23.484375 0 
z
" id="DejaVuSans-118"/>
      <path d="M 56.203125 29.59375 
L 56.203125 25.203125 
L 14.890625 25.203125 
Q 15.484375 15.921875 20.484375 11.0625 
Q 25.484375 6.203125 34.421875 6.203125 
Q 39.59375 6.203125 44.453125 7.46875 
Q 49.3125 8.734375 54.109375 11.28125 
L 54.109375 2.78125 
Q 49.265625 0.734375 44.1875 -0.34375 
Q 39.109375 -1.421875 33.890625 -1.421875 
Q 20.796875 -1.421875 13.15625 6.1875 
Q 5.515625 13.8125 5.515625 26.8125 
Q 5.515625 40.234375 12.765625 48.109375 
Q 20.015625 56 32.328125 56 
Q 43.359375 56 49.78125 48.890625 
Q 56.203125 41.796875 56.203125 29.59375 
z
M 47.21875 32.234375 
Q 47.125 39.59375 43.09375 43.984375 
Q 39.0625 48.390625 32.421875 48.390625 
Q 24.90625 48.390625 20.390625 44.140625 
Q 15.875 39.890625 15.1875 32.171875 
z
" id="DejaVuSans-101"/>
      <path d="M 44.28125 53.078125 
L 44.28125 44.578125 
Q 40.484375 46.53125 36.375 47.5 
Q 32.28125 48.484375 27.875 48.484375 
Q 21.1875 48.484375 17.84375 46.4375 
Q 14.5 44.390625 14.5 40.28125 
Q 14.5 37.15625 16.890625 35.375 
Q 19.28125 33.59375 26.515625 31.984375 
L 29.59375 31.296875 
Q 39.15625 29.25 43.1875 25.515625 
Q 47.21875 21.78125 47.21875 15.09375 
Q 47.21875 7.46875 41.1875 3.015625 
Q 35.15625 -1.421875 24.609375 -1.421875 
Q 20.21875 -1.421875 15.453125 -0.5625 
Q 10.6875 0.296875 5.421875 2 
L 5.421875 11.28125 
Q 10.40625 8.6875 15.234375 7.390625 
Q 20.0625 6.109375 24.8125 6.109375 
Q 31.15625 6.109375 34.5625 8.28125 
Q 37.984375 10.453125 37.984375 14.40625 
Q 37.984375 18.0625 35.515625 20.015625 
Q 33.0625 21.96875 24.703125 23.78125 
L 21.578125 24.515625 
Q 13.234375 26.265625 9.515625 29.90625 
Q 5.8125 33.546875 5.8125 39.890625 
Q 5.8125 47.609375 11.28125 51.796875 
Q 16.75 56 26.8125 56 
Q 31.78125 56 36.171875 55.265625 
Q 40.578125 54.546875 44.28125 53.078125 
z
" id="DejaVuSans-115"/>
      <path d="M 18.3125 70.21875 
L 18.3125 54.6875 
L 36.8125 54.6875 
L 36.8125 47.703125 
L 18.3125 47.703125 
L 18.3125 18.015625 
Q 18.3125 11.328125 20.140625 9.421875 
Q 21.96875 7.515625 27.59375 7.515625 
L 36.8125 7.515625 
L 36.8125 0 
L 27.59375 0 
Q 17.1875 0 13.234375 3.875 
Q 9.28125 7.765625 9.28125 18.015625 
L 9.28125 47.703125 
L 2.6875 47.703125 
L 2.6875 54.6875 
L 9.28125 54.6875 
L 9.28125 70.21875 
z
" id="DejaVuSans-116"/>
      <path d="M 45.40625 46.390625 
L 45.40625 75.984375 
L 54.390625 75.984375 
L 54.390625 0 
L 45.40625 0 
L 45.40625 8.203125 
Q 42.578125 3.328125 38.25 0.953125 
Q 33.9375 -1.421875 27.875 -1.421875 
Q 17.96875 -1.421875 11.734375 6.484375 
Q 5.515625 14.40625 5.515625 27.296875 
Q 5.515625 40.1875 11.734375 48.09375 
Q 17.96875 56 27.875 56 
Q 33.9375 56 38.25 53.625 
Q 42.578125 51.265625 45.40625 46.390625 
z
M 14.796875 27.296875 
Q 14.796875 17.390625 18.875 11.75 
Q 22.953125 6.109375 30.078125 6.109375 
Q 37.203125 6.109375 41.296875 11.75 
Q 45.40625 17.390625 45.40625 27.296875 
Q 45.40625 37.203125 41.296875 42.84375 
Q 37.203125 48.484375 30.078125 48.484375 
Q 22.953125 48.484375 18.875 42.84375 
Q 14.796875 37.203125 14.796875 27.296875 
z
" id="DejaVuSans-100"/>
     </defs>
     <g style="fill:#ff0000;opacity:0.698039;" transform="translate(138.424763 123.135158)scale(0.16 -0.16)">
      <use xlink:href="#DejaVuSans-105"/>
      <use x="27.783203" xlink:href="#DejaVuSans-110"/>
      <use x="91.162109" xlink:href="#DejaVuSans-118"/>
      <use x="150.341797" xlink:href="#DejaVuSans-101"/>
      <use x="211.865234" xlink:href="#DejaVuSans-115"/>
      <use x="263.964844" xlink:href="#DejaVuSans-116"/>
      <use x="303.173828" xlink:href="#DejaVuSans-101"/>
      <use x="364.697266" xlink:href="#DejaVuSans-100"/>
     </g>
    </g>
   </g>
   <g id="line2d_28">
    <path clip-path="url(#p21bddebf0d)" d="M 115.079763 147.259025 
L 172.679763 142.274871 
L 230.279763 148.973293 
L 287.879763 144.504244 
L 345.479763 39.93797 
L 403.079763 152.566665 
" style="fill:none;stroke:#0000ff;stroke-opacity:0.501961;stroke-width:3.544908;"/>
   </g>
   <g id="text_15">
    <g clip-path="url(#p21bddebf0d)">
     <!-- withdrawn -->
     <defs>
      <path d="M 4.203125 54.6875 
L 13.1875 54.6875 
L 24.421875 12.015625 
L 35.59375 54.6875 
L 46.1875 54.6875 
L 57.421875 12.015625 
L 68.609375 54.6875 
L 77.59375 54.6875 
L 63.28125 0 
L 52.6875 0 
L 40.921875 44.828125 
L 29.109375 0 
L 18.5 0 
z
" id="DejaVuSans-119"/>
      <path d="M 54.890625 33.015625 
L 54.890625 0 
L 45.90625 0 
L 45.90625 32.71875 
Q 45.90625 40.484375 42.875 44.328125 
Q 39.84375 48.1875 33.796875 48.1875 
Q 26.515625 48.1875 22.3125 43.546875 
Q 18.109375 38.921875 18.109375 30.90625 
L 18.109375 0 
L 9.078125 0 
L 9.078125 75.984375 
L 18.109375 75.984375 
L 18.109375 46.1875 
Q 21.34375 51.125 25.703125 53.5625 
Q 30.078125 56 35.796875 56 
Q 45.21875 56 50.046875 50.171875 
Q 54.890625 44.34375 54.890625 33.015625 
z
" id="DejaVuSans-104"/>
      <path d="M 41.109375 46.296875 
Q 39.59375 47.171875 37.8125 47.578125 
Q 36.03125 48 33.890625 48 
Q 26.265625 48 22.1875 43.046875 
Q 18.109375 38.09375 18.109375 28.8125 
L 18.109375 0 
L 9.078125 0 
L 9.078125 54.6875 
L 18.109375 54.6875 
L 18.109375 46.1875 
Q 20.953125 51.171875 25.484375 53.578125 
Q 30.03125 56 36.53125 56 
Q 37.453125 56 38.578125 55.875 
Q 39.703125 55.765625 41.0625 55.515625 
z
" id="DejaVuSans-114"/>
      <path d="M 34.28125 27.484375 
Q 23.390625 27.484375 19.1875 25 
Q 14.984375 22.515625 14.984375 16.5 
Q 14.984375 11.71875 18.140625 8.90625 
Q 21.296875 6.109375 26.703125 6.109375 
Q 34.1875 6.109375 38.703125 11.40625 
Q 43.21875 16.703125 43.21875 25.484375 
L 43.21875 27.484375 
z
M 52.203125 31.203125 
L 52.203125 0 
L 43.21875 0 
L 43.21875 8.296875 
Q 40.140625 3.328125 35.546875 0.953125 
Q 30.953125 -1.421875 24.3125 -1.421875 
Q 15.921875 -1.421875 10.953125 3.296875 
Q 6 8.015625 6 15.921875 
Q 6 25.140625 12.171875 29.828125 
Q 18.359375 34.515625 30.609375 34.515625 
L 43.21875 34.515625 
L 43.21875 35.40625 
Q 43.21875 41.609375 39.140625 45 
Q 35.0625 48.390625 27.6875 48.390625 
Q 23 48.390625 18.546875 47.265625 
Q 14.109375 46.140625 10.015625 43.890625 
L 10.015625 52.203125 
Q 14.9375 54.109375 19.578125 55.046875 
Q 24.21875 56 28.609375 56 
Q 40.484375 56 46.34375 49.84375 
Q 52.203125 43.703125 52.203125 31.203125 
z
" id="DejaVuSans-97"/>
     </defs>
     <g style="fill:#0000ff;opacity:0.698039;" transform="translate(246.026013 61.322582)scale(0.16 -0.16)">
      <use xlink:href="#DejaVuSans-119"/>
      <use x="81.787109" xlink:href="#DejaVuSans-105"/>
      <use x="109.570312" xlink:href="#DejaVuSans-116"/>
      <use x="148.779297" xlink:href="#DejaVuSans-104"/>
      <use x="212.158203" xlink:href="#DejaVuSans-100"/>
      <use x="275.634766" xlink:href="#DejaVuSans-114"/>
      <use x="316.748047" xlink:href="#DejaVuSans-97"/>
      <use x="378.027344" xlink:href="#DejaVuSans-119"/>
      <use x="459.814453" xlink:href="#DejaVuSans-110"/>
     </g>
    </g>
   </g>
   <g id="line2d_29">
    <path clip-path="url(#p21bddebf0d)" d="M 115.079763 215.953401 
L 172.679763 219.758995 
L 230.279763 224.104419 
L 287.879763 209.749479 
L 345.479763 281.85797 
L 403.079763 199.231039 
" style="fill:none;stroke:#000000;stroke-opacity:0.501961;stroke-width:3.544908;"/>
   </g>
   <g id="text_16">
    <g clip-path="url(#p21bddebf0d)">
     <!-- net savings -->
     <defs>
      <path id="DejaVuSans-32"/>
      <path d="M 45.40625 27.984375 
Q 45.40625 37.75 41.375 43.109375 
Q 37.359375 48.484375 30.078125 48.484375 
Q 22.859375 48.484375 18.828125 43.109375 
Q 14.796875 37.75 14.796875 27.984375 
Q 14.796875 18.265625 18.828125 12.890625 
Q 22.859375 7.515625 30.078125 7.515625 
Q 37.359375 7.515625 41.375 12.890625 
Q 45.40625 18.265625 45.40625 27.984375 
z
M 54.390625 6.78125 
Q 54.390625 -7.171875 48.1875 -13.984375 
Q 42 -20.796875 29.203125 -20.796875 
Q 24.46875 -20.796875 20.265625 -20.09375 
Q 16.0625 -19.390625 12.109375 -17.921875 
L 12.109375 -9.1875 
Q 16.0625 -11.328125 19.921875 -12.34375 
Q 23.78125 -13.375 27.78125 -13.375 
Q 36.625 -13.375 41.015625 -8.765625 
Q 45.40625 -4.15625 45.40625 5.171875 
L 45.40625 9.625 
Q 42.625 4.78125 38.28125 2.390625 
Q 33.9375 0 27.875 0 
Q 17.828125 0 11.671875 7.65625 
Q 5.515625 15.328125 5.515625 27.984375 
Q 5.515625 40.671875 11.671875 48.328125 
Q 17.828125 56 27.875 56 
Q 33.9375 56 38.28125 53.609375 
Q 42.625 51.21875 45.40625 46.390625 
L 45.40625 54.6875 
L 54.390625 54.6875 
z
" id="DejaVuSans-103"/>
     </defs>
     <g style="opacity:0.698039;" transform="translate(126.664763 205.551926)scale(0.16 -0.16)">
      <use xlink:href="#DejaVuSans-110"/>
      <use x="63.378906" xlink:href="#DejaVuSans-101"/>
      <use x="124.902344" xlink:href="#DejaVuSans-116"/>
      <use x="164.111328" xlink:href="#DejaVuSans-32"/>
      <use x="195.898438" xlink:href="#DejaVuSans-115"/>
      <use x="247.998047" xlink:href="#DejaVuSans-97"/>
      <use x="309.277344" xlink:href="#DejaVuSans-118"/>
      <use x="368.457031" xlink:href="#DejaVuSans-105"/>
      <use x="396.240234" xlink:href="#DejaVuSans-110"/>
      <use x="459.619141" xlink:href="#DejaVuSans-103"/>
      <use x="523.095703" xlink:href="#DejaVuSans-115"/>
     </g>
    </g>
   </g>
  </g>
  <g id="text_17">
   <!-- Gross household savings in funds -->
   <defs>
    <path d="M 68.109375 5.421875 
Q 60.984375 1.953125 53.3125 0.265625 
Q 45.65625 -1.421875 36.921875 -1.421875 
Q 21.390625 -1.421875 12.5 6.46875 
Q 3.609375 14.359375 3.609375 27.984375 
Q 3.609375 36.8125 6.390625 44.546875 
Q 9.1875 52.296875 14.703125 58.6875 
Q 21.4375 66.5 30.59375 70.359375 
Q 39.75 74.21875 51.515625 74.21875 
Q 58.0625 74.21875 64.703125 72.84375 
Q 71.34375 71.484375 77.78125 68.796875 
L 74.90625 53.71875 
Q 68.953125 57.171875 63.25 58.875 
Q 57.5625 60.59375 51.8125 60.59375 
Q 39.203125 60.59375 31.296875 52.1875 
Q 23.390625 43.796875 23.390625 30.609375 
Q 23.390625 21.875 28 17.03125 
Q 32.625 12.203125 41.015625 12.203125 
Q 43.75 12.203125 46.484375 12.5625 
Q 49.21875 12.9375 52 13.71875 
L 54.78125 27.875 
L 43.3125 27.875 
L 45.703125 40.484375 
L 74.90625 40.484375 
z
" id="DejaVuSans-BoldOblique-71"/>
    <path d="M 51.421875 39.796875 
Q 49.609375 40.828125 47.40625 41.359375 
Q 45.21875 41.890625 42.671875 41.890625 
Q 35.984375 41.890625 31.5625 37.59375 
Q 27.15625 33.296875 25.59375 25.203125 
L 20.609375 0 
L 3.078125 0 
L 13.71875 54.6875 
L 31.296875 54.6875 
L 29.390625 45.3125 
Q 32.859375 50.484375 38.0625 53.234375 
Q 43.265625 56 49.609375 56 
Q 50.53125 56 51.703125 55.90625 
Q 52.875 55.8125 54.5 55.609375 
z
" id="DejaVuSans-BoldOblique-114"/>
    <path d="M 37.5 43.5 
Q 30.71875 43.5 26.3125 37.34375 
Q 21.921875 31.203125 21.921875 21.6875 
Q 21.921875 16.5 24.28125 13.78125 
Q 26.65625 11.078125 31.203125 11.078125 
Q 37.984375 11.078125 42.375 17.25 
Q 46.78125 23.4375 46.78125 33.015625 
Q 46.78125 38.140625 44.40625 40.8125 
Q 42.046875 43.5 37.5 43.5 
z
M 38.921875 56 
Q 51.125 56 58.109375 49.796875 
Q 65.09375 43.609375 65.09375 32.90625 
Q 65.09375 26.703125 62.890625 20.875 
Q 60.6875 15.046875 56.5 10.203125 
Q 51.515625 4.4375 44.71875 1.5 
Q 37.9375 -1.421875 29.59375 -1.421875 
Q 17.53125 -1.421875 10.5625 4.78125 
Q 3.609375 10.984375 3.609375 21.6875 
Q 3.609375 27.828125 5.859375 33.703125 
Q 8.109375 39.59375 12.3125 44.484375 
Q 17.1875 50.140625 23.953125 53.0625 
Q 30.71875 56 38.921875 56 
z
" id="DejaVuSans-BoldOblique-111"/>
    <path d="M 56 52.984375 
L 53.421875 39.40625 
Q 48.296875 41.84375 43.21875 43.109375 
Q 38.140625 44.390625 33.59375 44.390625 
Q 28.421875 44.390625 25.609375 43.046875 
Q 22.796875 41.703125 22.796875 39.203125 
Q 22.796875 37.75 24.359375 36.859375 
Q 25.921875 35.984375 30.515625 35.015625 
L 33.6875 34.421875 
Q 44.28125 32.171875 48.53125 28.625 
Q 52.78125 25.09375 52.78125 18.796875 
Q 52.78125 9.28125 45.3125 3.921875 
Q 37.84375 -1.421875 24.421875 -1.421875 
Q 18.796875 -1.421875 12.9375 -0.53125 
Q 7.078125 0.34375 0.984375 2.09375 
L 3.609375 15.828125 
Q 8.34375 13.03125 13.734375 11.609375 
Q 19.140625 10.203125 24.8125 10.203125 
Q 30.328125 10.203125 33.109375 11.515625 
Q 35.890625 12.84375 35.890625 15.375 
Q 35.890625 17.140625 34.328125 18.109375 
Q 32.765625 19.09375 27.875 20.125 
L 24.703125 20.703125 
Q 15.328125 22.65625 11.328125 26.46875 
Q 7.328125 30.28125 7.328125 37.015625 
Q 7.328125 46.140625 14.234375 51.0625 
Q 21.140625 56 33.984375 56 
Q 39.59375 56 45.03125 55.25 
Q 50.484375 54.5 56 52.984375 
z
" id="DejaVuSans-BoldOblique-115"/>
    <path id="DejaVuSans-BoldOblique-32"/>
    <path d="M 64.5 33.296875 
L 58.015625 0 
L 40.484375 0 
L 46 28.515625 
Q 46.578125 31.296875 46.890625 33.21875 
Q 47.21875 35.15625 47.21875 36.28125 
Q 47.21875 39.40625 45.484375 41.109375 
Q 43.75 42.828125 40.578125 42.828125 
Q 35.15625 42.828125 31.265625 38.59375 
Q 27.390625 34.375 25.875 26.90625 
L 20.609375 0 
L 3.078125 0 
L 17.828125 75.984375 
L 35.40625 75.984375 
L 29.6875 46.6875 
Q 34.515625 51.421875 39.390625 53.703125 
Q 44.28125 56 49.609375 56 
Q 57.171875 56 61.265625 52.046875 
Q 65.375 48.09375 65.375 40.921875 
Q 65.375 39.359375 65.15625 37.453125 
Q 64.9375 35.546875 64.5 33.296875 
z
" id="DejaVuSans-BoldOblique-104"/>
    <path d="M 6.78125 21.296875 
L 13.1875 54.6875 
L 30.71875 54.6875 
L 25.203125 26.21875 
Q 24.609375 23.4375 24.3125 21.484375 
Q 24.03125 19.53125 24.03125 18.40625 
Q 24.03125 15.328125 25.734375 13.625 
Q 27.4375 11.921875 30.609375 11.921875 
Q 36.03125 11.921875 39.9375 16.109375 
Q 43.84375 20.3125 45.3125 27.78125 
L 50.59375 54.6875 
L 68.109375 54.6875 
L 57.515625 0 
L 39.890625 0 
L 41.5 8.015625 
Q 37.015625 3.265625 32.078125 0.921875 
Q 27.15625 -1.421875 21.6875 -1.421875 
Q 14.203125 -1.421875 10.09375 2.53125 
Q 6 6.5 6 13.71875 
Q 6 15.4375 6.1875 17.328125 
Q 6.390625 19.234375 6.78125 21.296875 
z
" id="DejaVuSans-BoldOblique-117"/>
    <path d="M 62.890625 25.296875 
L 62.3125 22.515625 
L 21.390625 22.515625 
Q 21.390625 22.21875 21.34375 21.65625 
Q 21.296875 21.09375 21.296875 20.796875 
Q 21.296875 15.484375 24.484375 12.84375 
Q 27.6875 10.203125 34.078125 10.203125 
Q 39.59375 10.203125 45.71875 11.859375 
Q 51.859375 13.53125 58.59375 16.796875 
L 55.90625 3.21875 
Q 49.515625 0.875 43.1875 -0.265625 
Q 36.859375 -1.421875 30.328125 -1.421875 
Q 17.53125 -1.421875 10.5625 4.484375 
Q 3.609375 10.40625 3.609375 21.1875 
Q 3.609375 27.4375 5.828125 33.3125 
Q 8.0625 39.203125 12.3125 44.09375 
Q 17.328125 49.953125 24.328125 52.96875 
Q 31.34375 56 39.890625 56 
Q 50.984375 56 57.5 50.09375 
Q 64.015625 44.1875 64.015625 34.1875 
Q 64.015625 32.234375 63.75 30.046875 
Q 63.484375 27.875 62.890625 25.296875 
z
M 46.390625 33.296875 
Q 46.53125 33.9375 46.609375 34.59375 
Q 46.6875 35.25 46.6875 35.890625 
Q 46.6875 39.796875 44.34375 42.09375 
Q 42 44.390625 37.984375 44.390625 
Q 32.859375 44.390625 29.265625 41.578125 
Q 25.6875 38.765625 23.78125 33.296875 
z
" id="DejaVuSans-BoldOblique-101"/>
    <path d="M 17.828125 75.984375 
L 35.40625 75.984375 
L 20.609375 0 
L 3.078125 0 
z
" id="DejaVuSans-BoldOblique-108"/>
    <path d="M 30.71875 11.28125 
Q 37.453125 11.28125 41.671875 17.484375 
Q 45.90625 23.6875 45.90625 33.6875 
Q 45.90625 38.234375 43.53125 40.765625 
Q 41.15625 43.3125 36.921875 43.3125 
Q 30.28125 43.3125 25.984375 37.1875 
Q 21.6875 31.0625 21.6875 21.484375 
Q 21.6875 16.5 24 13.890625 
Q 26.3125 11.28125 30.71875 11.28125 
z
M 49.125 46.6875 
L 54.78125 75.984375 
L 72.40625 75.984375 
L 57.625 0 
L 39.984375 0 
L 41.609375 7.90625 
Q 37.59375 3.125 33.203125 0.84375 
Q 28.8125 -1.421875 23.578125 -1.421875 
Q 14.359375 -1.421875 8.984375 4.4375 
Q 3.609375 10.296875 3.609375 20.40625 
Q 3.609375 26.703125 5.484375 32.65625 
Q 7.375 38.625 10.890625 43.5 
Q 15.328125 49.65625 20.921875 52.828125 
Q 26.515625 56 32.90625 56 
Q 38.53125 56 42.453125 53.734375 
Q 46.390625 51.46875 49.125 46.6875 
z
" id="DejaVuSans-BoldOblique-100"/>
    <path d="M 32.90625 24.609375 
Q 26.375 24.609375 23.015625 22.578125 
Q 19.671875 20.5625 19.671875 16.609375 
Q 19.671875 13.625 21.65625 11.90625 
Q 23.640625 10.203125 27.09375 10.203125 
Q 32.46875 10.203125 36.078125 13.453125 
Q 39.703125 16.703125 40.921875 22.609375 
L 41.3125 24.609375 
z
M 60.203125 31.203125 
L 54.109375 0 
L 36.625 0 
L 38.09375 8.109375 
Q 33.796875 3.21875 29 0.890625 
Q 24.21875 -1.421875 18.609375 -1.421875 
Q 10.84375 -1.421875 6.265625 2.609375 
Q 1.703125 6.640625 1.703125 13.484375 
Q 1.703125 23.921875 9.78125 29.46875 
Q 17.875 35.015625 33.109375 35.015625 
L 43.40625 35.015625 
L 43.609375 36.375 
Q 43.75 37.0625 43.765625 37.34375 
Q 43.796875 37.640625 43.796875 37.890625 
Q 43.796875 41.109375 40.75 42.75 
Q 37.703125 44.390625 31.6875 44.390625 
Q 26.265625 44.390625 21.1875 43.265625 
Q 16.109375 42.140625 11.375 39.890625 
L 14.015625 53.21875 
Q 19.484375 54.59375 25.21875 55.296875 
Q 30.953125 56 37.109375 56 
Q 49.265625 56 55.171875 51.828125 
Q 61.078125 47.65625 61.078125 39.109375 
Q 61.078125 37.453125 60.859375 35.46875 
Q 60.640625 33.5 60.203125 31.203125 
z
" id="DejaVuSans-BoldOblique-97"/>
    <path d="M 6.296875 54.6875 
L 22.40625 54.6875 
L 29.5 16.5 
L 50.09375 54.6875 
L 67.828125 54.6875 
L 35.6875 0 
L 17.1875 0 
z
" id="DejaVuSans-BoldOblique-118"/>
    <path d="M 13.71875 54.6875 
L 31.296875 54.6875 
L 20.609375 0 
L 3.078125 0 
z
M 17.828125 75.984375 
L 35.40625 75.984375 
L 32.625 61.71875 
L 14.984375 61.71875 
z
" id="DejaVuSans-BoldOblique-105"/>
    <path d="M 64.5 33.296875 
L 58.015625 0 
L 40.484375 0 
L 46 28.515625 
Q 46.578125 31.296875 46.890625 33.21875 
Q 47.21875 35.15625 47.21875 36.28125 
Q 47.21875 39.40625 45.484375 41.109375 
Q 43.75 42.828125 40.578125 42.828125 
Q 35.15625 42.828125 31.265625 38.59375 
Q 27.390625 34.375 25.875 26.90625 
L 20.609375 0 
L 3.078125 0 
L 13.71875 54.6875 
L 31.296875 54.6875 
L 29.6875 46.6875 
Q 34.515625 51.421875 39.390625 53.703125 
Q 44.28125 56 49.609375 56 
Q 57.171875 56 61.265625 52.046875 
Q 65.375 48.09375 65.375 40.921875 
Q 65.375 39.359375 65.15625 37.453125 
Q 64.9375 35.546875 64.5 33.296875 
z
" id="DejaVuSans-BoldOblique-110"/>
    <path d="M 41.796875 9.28125 
Q 37.59375 4.5 33.25 2.25 
Q 28.90625 0 23.78125 0 
Q 14.5 0 9.109375 5.984375 
Q 3.71875 11.96875 3.71875 22.3125 
Q 3.71875 27.828125 5.59375 33.375 
Q 7.46875 38.921875 10.984375 43.796875 
Q 15.28125 49.703125 20.84375 52.796875 
Q 26.421875 55.90625 32.8125 55.90625 
Q 38.578125 55.90625 42.5 53.65625 
Q 46.4375 51.421875 49.125 46.578125 
L 50.59375 54.6875 
L 68.21875 54.6875 
L 58.984375 7.171875 
Q 56.15625 -7.515625 46.875 -14.546875 
Q 37.59375 -21.578125 21.09375 -21.578125 
Q 16.015625 -21.578125 11.296875 -20.796875 
Q 6.59375 -20.015625 2 -18.40625 
L 4.59375 -4.78125 
Q 8.734375 -7.421875 12.890625 -8.71875 
Q 17.046875 -10.015625 21.390625 -10.015625 
Q 30.078125 -10.015625 34.734375 -6.296875 
Q 39.40625 -2.59375 41.015625 5.515625 
z
M 36.921875 43.3125 
Q 30.46875 43.3125 26.1875 37.5 
Q 21.921875 31.6875 21.921875 22.90625 
Q 21.921875 17.921875 24.21875 15.3125 
Q 26.515625 12.703125 30.90625 12.703125 
Q 37.3125 12.703125 41.609375 18.484375 
Q 45.90625 24.265625 45.90625 32.90625 
Q 45.90625 37.984375 43.609375 40.640625 
Q 41.3125 43.3125 36.921875 43.3125 
z
" id="DejaVuSans-BoldOblique-103"/>
    <path d="M 54 75.984375 
L 51.703125 64.5 
L 42.09375 64.5 
Q 38.421875 64.5 36.734375 63.15625 
Q 35.0625 61.8125 34.421875 58.546875 
L 33.59375 54.6875 
L 48.390625 54.6875 
L 46 42.1875 
L 31.203125 42.1875 
L 23 0 
L 5.421875 0 
L 13.625 42.1875 
L 4.984375 42.1875 
L 7.421875 54.6875 
L 16.015625 54.6875 
L 16.796875 58.5 
Q 18.609375 67.578125 24.3125 71.78125 
Q 30.03125 75.984375 40.578125 75.984375 
z
" id="DejaVuSans-BoldOblique-102"/>
   </defs>
   <g style="opacity:0.8;" transform="translate(111.289685 18.597656)scale(0.15 -0.15)">
    <use xlink:href="#DejaVuSans-BoldOblique-71"/>
    <use x="82.080078" xlink:href="#DejaVuSans-BoldOblique-114"/>
    <use x="131.396484" xlink:href="#DejaVuSans-BoldOblique-111"/>
    <use x="200.097656" xlink:href="#DejaVuSans-BoldOblique-115"/>
    <use x="259.619141" xlink:href="#DejaVuSans-BoldOblique-115"/>
    <use x="319.140625" xlink:href="#DejaVuSans-BoldOblique-32"/>
    <use x="353.955078" xlink:href="#DejaVuSans-BoldOblique-104"/>
    <use x="425.146484" xlink:href="#DejaVuSans-BoldOblique-111"/>
    <use x="493.847656" xlink:href="#DejaVuSans-BoldOblique-117"/>
    <use x="565.039062" xlink:href="#DejaVuSans-BoldOblique-115"/>
    <use x="624.560547" xlink:href="#DejaVuSans-BoldOblique-101"/>
    <use x="692.382812" xlink:href="#DejaVuSans-BoldOblique-104"/>
    <use x="763.574219" xlink:href="#DejaVuSans-BoldOblique-111"/>
    <use x="832.275391" xlink:href="#DejaVuSans-BoldOblique-108"/>
    <use x="866.552734" xlink:href="#DejaVuSans-BoldOblique-100"/>
    <use x="938.134766" xlink:href="#DejaVuSans-BoldOblique-32"/>
    <use x="972.949219" xlink:href="#DejaVuSans-BoldOblique-115"/>
    <use x="1032.470703" xlink:href="#DejaVuSans-BoldOblique-97"/>
    <use x="1099.951172" xlink:href="#DejaVuSans-BoldOblique-118"/>
    <use x="1165.136719" xlink:href="#DejaVuSans-BoldOblique-105"/>
    <use x="1199.414062" xlink:href="#DejaVuSans-BoldOblique-110"/>
    <use x="1270.605469" xlink:href="#DejaVuSans-BoldOblique-103"/>
    <use x="1342.1875" xlink:href="#DejaVuSans-BoldOblique-115"/>
    <use x="1401.708984" xlink:href="#DejaVuSans-BoldOblique-32"/>
    <use x="1436.523438" xlink:href="#DejaVuSans-BoldOblique-105"/>
    <use x="1470.800781" xlink:href="#DejaVuSans-BoldOblique-110"/>
    <use x="1541.992188" xlink:href="#DejaVuSans-BoldOblique-32"/>
    <use x="1576.806641" xlink:href="#DejaVuSans-BoldOblique-102"/>
    <use x="1620.3125" xlink:href="#DejaVuSans-BoldOblique-117"/>
    <use x="1691.503906" xlink:href="#DejaVuSans-BoldOblique-110"/>
    <use x="1762.695312" xlink:href="#DejaVuSans-BoldOblique-100"/>
    <use x="1834.277344" xlink:href="#DejaVuSans-BoldOblique-115"/>
   </g>
  </g>
 </g>
 <defs>
  <clipPath id="p21bddebf0d">
   <rect height="266.112" width="357.12" x="80.519763" y="27.84197"/>
  </clipPath>
 </defs>
</svg>
